# xmcd
#
# Track frame offsets: 
#        150
#        13417
#        33310
#        47077
#        65902
#        81517
#        91835
#        113325
#        131147
#        152090
#        172395
#
# Disc length: 2494 seconds
#
# Revision: 4
# Processed by: cddbd v1.5.2PL0 Copyright (c) Steve Scherf et al.
# Submitted via: ExactAudioCopy v0.99pb4
#
DISCID=9809bc0b
DTITLE=Michael Burks - From The Inside Out
DYEAR=1999
DGENRE=Blues
TTITLE0=Find Me A New Love
TTITLE1=From The Inside Out
TTITLE2=Talk To Me Baby
TTITLE3=Little Did I Know
TTITLE4=Lyin', Sneakin' and Cheatin'
TTITLE5=Play Hard For My Money
TTITLE6=Lonely Heart
TTITLE7=Nothin' Else To Do
TTITLE8=Can You Feel It
TTITLE9=Too Hard To Please
TTITLE10=Jammin' At The Wheel
EXTD=
EXTT0=
EXTT1=
EXTT2=
EXTT3=
EXTT4=
EXTT5=
EXTT6=
EXTT7=
EXTT8=
EXTT9=
EXTT10=
PLAYORDER=
